<mxfile host="Electron" agent="Mozilla/5.0 (Windows NT 10.0; Win64; x64) AppleWebKit/537.36 (KHTML, like Gecko) draw.io/28.0.6 Chrome/138.0.7204.100 Electron/37.2.3 Safari/537.36" version="28.0.6">
  <diagram name="Page-1" id="2KytaOv47t6IDxsQD-Jd">
    <mxGraphModel dx="2775" dy="1250" grid="1" gridSize="10" guides="0" tooltips="1" connect="0" arrows="0" fold="1" page="1" pageScale="1" pageWidth="850" pageHeight="1100" math="0" shadow="0">
      <root>
        <mxCell id="0" />
        <mxCell id="1" parent="0" />
        <mxCell id="eqpSWVRwXgy1ZHIJhN9i-34" value="" style="ellipse;html=1;shape=startState;fillColor=#000000;strokeColor=#ff0000;" parent="1" vertex="1">
          <mxGeometry x="425" y="10" width="30" height="30" as="geometry" />
        </mxCell>
        <mxCell id="eqpSWVRwXgy1ZHIJhN9i-35" value="" style="edgeStyle=orthogonalEdgeStyle;html=1;verticalAlign=bottom;endArrow=open;endSize=8;strokeColor=#ff0000;rounded=0;" parent="1" source="eqpSWVRwXgy1ZHIJhN9i-34" edge="1">
          <mxGeometry relative="1" as="geometry">
            <mxPoint x="440" y="70" as="targetPoint" />
          </mxGeometry>
        </mxCell>
        <mxCell id="eqpSWVRwXgy1ZHIJhN9i-3" value="User Inputs Ticker" style="html=1;whiteSpace=wrap;" parent="1" vertex="1">
          <mxGeometry x="380" y="70" width="120" height="60" as="geometry" />
        </mxCell>
        <mxCell id="eqpSWVRwXgy1ZHIJhN9i-2" value="" style="edgeStyle=orthogonalEdgeStyle;rounded=0;orthogonalLoop=1;jettySize=auto;html=1;" parent="1" source="eqpSWVRwXgy1ZHIJhN9i-3" target="eqpSWVRwXgy1ZHIJhN9i-5" edge="1">
          <mxGeometry relative="1" as="geometry" />
        </mxCell>
        <mxCell id="eqpSWVRwXgy1ZHIJhN9i-5" value="System Initialization&lt;div&gt;- Set up Env&lt;/div&gt;&lt;div&gt;- Initialize Cache&lt;/div&gt;" style="rounded=0;whiteSpace=wrap;html=1;" parent="1" vertex="1">
          <mxGeometry x="380" y="160" width="120" height="60" as="geometry" />
        </mxCell>
        <mxCell id="eqpSWVRwXgy1ZHIJhN9i-83" value="" style="edgeStyle=orthogonalEdgeStyle;rounded=0;orthogonalLoop=1;jettySize=auto;html=1;" parent="1" source="eqpSWVRwXgy1ZHIJhN9i-5" edge="1">
          <mxGeometry relative="1" as="geometry">
            <mxPoint x="440" y="250" as="targetPoint" />
          </mxGeometry>
        </mxCell>
        <mxCell id="eqpSWVRwXgy1ZHIJhN9i-97" value="&lt;b&gt;Orchestration Agent&lt;/b&gt;&lt;div&gt;- Delegate tasks; validate flow&lt;/div&gt;&lt;div&gt;&lt;b&gt;Inputs:&lt;/b&gt; user request/ticker, env flags (LOW_API_MODE, use_ml_model), config&lt;/div&gt;&lt;div&gt;&lt;b&gt;Outputs:&lt;/b&gt; validated parameters, next-step decisions or error&lt;/div&gt;" style="rounded=1;whiteSpace=wrap;html=1;shadow=1;fillColor=#FFF9C4;strokeColor=#FBC02D;strokeWidth=2;" parent="1" vertex="1">
          <mxGeometry x="360" y="250" width="160" height="120" as="geometry" />
        </mxCell>
        <mxCell id="eqpSWVRwXgy1ZHIJhN9i-102" value="" style="edgeStyle=orthogonalEdgeStyle;rounded=0;orthogonalLoop=1;jettySize=auto;html=1;" parent="1" source="eqpSWVRwXgy1ZHIJhN9i-97" target="eqpSWVRwXgy1ZHIJhN9i-96" edge="1">
          <mxGeometry relative="1" as="geometry" />
        </mxCell>
        <mxCell id="eqpSWVRwXgy1ZHIJhN9i-96" value="" style="rhombus;whiteSpace=wrap;html=1;fontSize=9;" parent="1" vertex="1">
          <mxGeometry x="400" y="400" width="80" height="80" as="geometry" />
        </mxCell>
        <mxCell id="eqpSWVRwXgy1ZHIJhN9i-104" value="Can Validate Ticker, check market status and parameters" style="text;html=1;align=center;verticalAlign=middle;resizable=0;points=[];autosize=1;strokeColor=none;fillColor=none;" parent="1" vertex="1">
          <mxGeometry x="60" y="425" width="330" height="30" as="geometry" />
        </mxCell>
        <mxCell id="-6jR4r3HytJgTuYuLb_f-6" value="" style="edgeStyle=orthogonalEdgeStyle;rounded=0;orthogonalLoop=1;jettySize=auto;html=1;" parent="1" source="eqpSWVRwXgy1ZHIJhN9i-96" target="eqpSWVRwXgy1ZHIJhN9i-1" edge="1">
          <mxGeometry relative="1" as="geometry" />
        </mxCell>
        <mxCell id="eqpSWVRwXgy1ZHIJhN9i-105" value="If YES" style="text;html=1;align=center;verticalAlign=middle;resizable=0;points=[];autosize=1;strokeColor=none;fillColor=none;" parent="1" vertex="1">
          <mxGeometry x="370" y="460" width="60" height="30" as="geometry" />
        </mxCell>
        <mxCell id="-6jR4r3HytJgTuYuLb_f-62" style="edgeStyle=orthogonalEdgeStyle;rounded=0;orthogonalLoop=1;jettySize=auto;html=1;entryX=0.5;entryY=1;entryDx=0;entryDy=0;" parent="1" source="eqpSWVRwXgy1ZHIJhN9i-96" target="eqpSWVRwXgy1ZHIJhN9i-36" edge="1">
          <mxGeometry relative="1" as="geometry">
            <Array as="points">
              <mxPoint x="840" y="440" />
              <mxPoint x="840" y="2100" />
              <mxPoint x="440" y="2100" />
            </Array>
          </mxGeometry>
        </mxCell>
        <mxCell id="eqpSWVRwXgy1ZHIJhN9i-106" value="If NO" style="text;html=1;align=center;verticalAlign=middle;resizable=0;points=[];autosize=1;strokeColor=none;fillColor=none;" parent="1" vertex="1">
          <mxGeometry x="540" y="400" width="50" height="30" as="geometry" />
        </mxCell>
        <mxCell id="eqpSWVRwXgy1ZHIJhN9i-1" value="Data Collection&lt;div&gt;- Pulls information from Yahoo Finance API&lt;/div&gt;" style="html=1;whiteSpace=wrap;" parent="1" vertex="1">
          <mxGeometry x="380" y="510" width="120" height="60" as="geometry" />
        </mxCell>
        <mxCell id="-6jR4r3HytJgTuYuLb_f-8" style="edgeStyle=orthogonalEdgeStyle;rounded=0;orthogonalLoop=1;jettySize=auto;html=1;" parent="1" source="eqpSWVRwXgy1ZHIJhN9i-1" target="-6jR4r3HytJgTuYuLb_f-9" edge="1">
          <mxGeometry relative="1" as="geometry" />
        </mxCell>
        <mxCell id="-6jR4r3HytJgTuYuLb_f-9" value="" style="rhombus;whiteSpace=wrap;html=1;" parent="1" vertex="1">
          <mxGeometry x="400" y="600" width="80" height="80" as="geometry" />
        </mxCell>
        <mxCell id="-6jR4r3HytJgTuYuLb_f-21" value="Information Available and retrieved" style="text;html=1;align=center;verticalAlign=middle;resizable=0;points=[];autosize=1;strokeColor=none;fillColor=none;" parent="1" vertex="1">
          <mxGeometry x="125" y="615" width="210" height="30" as="geometry" />
        </mxCell>
        <mxCell id="-6jR4r3HytJgTuYuLb_f-11" value="" style="edgeStyle=orthogonalEdgeStyle;rounded=0;orthogonalLoop=1;jettySize=auto;html=1;" parent="1" source="-6jR4r3HytJgTuYuLb_f-9" target="-6jR4r3HytJgTuYuLb_f-10" edge="1">
          <mxGeometry relative="1" as="geometry">
            <Array as="points">
              <mxPoint x="340" y="680" />
            </Array>
          </mxGeometry>
        </mxCell>
        <mxCell id="-6jR4r3HytJgTuYuLb_f-10" value="Yahoo Finance Data" style="whiteSpace=wrap;html=1;" parent="1" vertex="1">
          <mxGeometry x="280" y="700" width="120" height="60" as="geometry" />
        </mxCell>
        <mxCell id="-6jR4r3HytJgTuYuLb_f-12" value="If YES" style="text;html=1;align=center;verticalAlign=middle;resizable=0;points=[];autosize=1;strokeColor=none;fillColor=none;" parent="1" vertex="1">
          <mxGeometry x="320" y="645" width="60" height="30" as="geometry" />
        </mxCell>
        <mxCell id="-6jR4r3HytJgTuYuLb_f-14" value="" style="edgeStyle=orthogonalEdgeStyle;rounded=0;orthogonalLoop=1;jettySize=auto;html=1;" parent="1" source="-6jR4r3HytJgTuYuLb_f-9" target="-6jR4r3HytJgTuYuLb_f-13" edge="1">
          <mxGeometry relative="1" as="geometry" />
        </mxCell>
        <mxCell id="-6jR4r3HytJgTuYuLb_f-13" value="Use cached data (if fetch timeout)" style="whiteSpace=wrap;html=1;" parent="1" vertex="1">
          <mxGeometry x="520" y="700" width="120" height="60" as="geometry" />
        </mxCell>
        <mxCell id="-6jR4r3HytJgTuYuLb_f-15" value="If No" style="text;html=1;align=center;verticalAlign=middle;resizable=0;points=[];autosize=1;strokeColor=none;fillColor=none;" parent="1" vertex="1">
          <mxGeometry x="485" y="645" width="50" height="30" as="geometry" />
        </mxCell>
        <mxCell id="-6jR4r3HytJgTuYuLb_f-17" value="" style="edgeStyle=orthogonalEdgeStyle;rounded=0;orthogonalLoop=1;jettySize=auto;html=1;" parent="1" source="-6jR4r3HytJgTuYuLb_f-13" target="-6jR4r3HytJgTuYuLb_f-16" edge="1">
          <mxGeometry relative="1" as="geometry" />
        </mxCell>
        <mxCell id="-6jR4r3HytJgTuYuLb_f-16" value="" style="rhombus;whiteSpace=wrap;html=1;" parent="1" vertex="1">
          <mxGeometry x="540" y="790" width="80" height="80" as="geometry" />
        </mxCell>
        <mxCell id="-6jR4r3HytJgTuYuLb_f-18" style="edgeStyle=orthogonalEdgeStyle;rounded=0;orthogonalLoop=1;jettySize=auto;html=1;entryX=0.5;entryY=0;entryDx=0;entryDy=0;" parent="1" source="-6jR4r3HytJgTuYuLb_f-16" target="eqpSWVRwXgy1ZHIJhN9i-9" edge="1">
          <mxGeometry relative="1" as="geometry">
            <Array as="points">
              <mxPoint x="440" y="830" />
            </Array>
          </mxGeometry>
        </mxCell>
        <mxCell id="-6jR4r3HytJgTuYuLb_f-19" value="If YES" style="text;html=1;align=center;verticalAlign=middle;resizable=0;points=[];autosize=1;strokeColor=none;fillColor=none;" parent="1" vertex="1">
          <mxGeometry x="460" y="795" width="60" height="30" as="geometry" />
        </mxCell>
        <mxCell id="-6jR4r3HytJgTuYuLb_f-22" style="edgeStyle=orthogonalEdgeStyle;rounded=0;orthogonalLoop=1;jettySize=auto;html=1;entryX=1;entryY=0.5;entryDx=0;entryDy=0;" parent="1" source="-6jR4r3HytJgTuYuLb_f-16" target="eqpSWVRwXgy1ZHIJhN9i-36" edge="1">
          <mxGeometry relative="1" as="geometry">
            <Array as="points">
              <mxPoint x="750" y="830" />
              <mxPoint x="750" y="2090" />
              <mxPoint x="455" y="2090" />
            </Array>
          </mxGeometry>
        </mxCell>
        <mxCell id="-6jR4r3HytJgTuYuLb_f-23" value="If NO" style="text;html=1;align=center;verticalAlign=middle;resizable=0;points=[];autosize=1;strokeColor=none;fillColor=none;" parent="1" vertex="1">
          <mxGeometry x="650" y="795" width="50" height="30" as="geometry" />
        </mxCell>
        <mxCell id="-6jR4r3HytJgTuYuLb_f-49" style="edgeStyle=orthogonalEdgeStyle;rounded=0;orthogonalLoop=1;jettySize=auto;html=1;exitX=0.5;exitY=1;exitDx=0;exitDy=0;entryX=0.5;entryY=0;entryDx=0;entryDy=0;" parent="1" source="-6jR4r3HytJgTuYuLb_f-10" target="eqpSWVRwXgy1ZHIJhN9i-9" edge="1">
          <mxGeometry relative="1" as="geometry">
            <Array as="points">
              <mxPoint x="340" y="850" />
              <mxPoint x="440" y="850" />
            </Array>
          </mxGeometry>
        </mxCell>
        <mxCell id="-6jR4r3HytJgTuYuLb_f-26" value="Information Available and Data Retrieved" style="text;html=1;align=center;verticalAlign=middle;resizable=0;points=[];autosize=1;strokeColor=none;fillColor=none;" parent="1" vertex="1">
          <mxGeometry x="220" y="820" width="240" height="30" as="geometry" />
        </mxCell>
        <mxCell id="ghIlH1wXpQnP-uuNbD-s-25" style="edgeStyle=orthogonalEdgeStyle;rounded=0;orthogonalLoop=1;jettySize=auto;html=1;entryX=0.5;entryY=0;entryDx=0;entryDy=0;" edge="1" parent="1" source="eqpSWVRwXgy1ZHIJhN9i-9" target="eqpSWVRwXgy1ZHIJhN9i-16">
          <mxGeometry relative="1" as="geometry" />
        </mxCell>
        <mxCell id="eqpSWVRwXgy1ZHIJhN9i-9" value="&lt;b&gt;Data Collector Agent&lt;/b&gt;&lt;div&gt;- yfinance + cache/validation&lt;/div&gt;&lt;div&gt;&lt;b&gt;Inputs:&lt;/b&gt; ticker, timeframe/range, cache state&lt;/div&gt;&lt;div&gt;&lt;b&gt;Outputs:&lt;/b&gt; OHLCV, company, market data (structured)&lt;/div&gt;" style="rounded=1;whiteSpace=wrap;html=1;shadow=1;fillColor=#FFF9C4;strokeColor=#FBC02D;strokeWidth=2;" parent="1" vertex="1">
          <mxGeometry x="360" y="890" width="160" height="120" as="geometry" />
        </mxCell>
        <mxCell id="eqpSWVRwXgy1ZHIJhN9i-6" value="" style="edgeStyle=orthogonalEdgeStyle;rounded=0;orthogonalLoop=1;jettySize=auto;html=1;" parent="1" source="eqpSWVRwXgy1ZHIJhN9i-9" target="eqpSWVRwXgy1ZHIJhN9i-11" edge="1">
          <mxGeometry relative="1" as="geometry" />
        </mxCell>
        <mxCell id="eqpSWVRwXgy1ZHIJhN9i-7" value="" style="edgeStyle=orthogonalEdgeStyle;rounded=0;orthogonalLoop=1;jettySize=auto;html=1;" parent="1" source="eqpSWVRwXgy1ZHIJhN9i-9" target="eqpSWVRwXgy1ZHIJhN9i-13" edge="1">
          <mxGeometry relative="1" as="geometry" />
        </mxCell>
        <mxCell id="eqpSWVRwXgy1ZHIJhN9i-11" value="&lt;b&gt;Technical Analyzer Agent&lt;/b&gt;&lt;div&gt;- 20+ indicators, patterns, S/R&lt;/div&gt;&lt;div&gt;&lt;b&gt;Inputs:&lt;/b&gt; historical OHLCV dataset&lt;/div&gt;&lt;div&gt;&lt;b&gt;Outputs:&lt;/b&gt; indicators + trading signals&lt;/div&gt;" style="rounded=1;whiteSpace=wrap;html=1;shadow=1;fillColor=#FFF9C4;strokeColor=#FBC02D;strokeWidth=2;" parent="1" vertex="1">
          <mxGeometry x="120" y="1040" width="160" height="120" as="geometry" />
        </mxCell>
        <mxCell id="eqpSWVRwXgy1ZHIJhN9i-13" value="&lt;b&gt;Sentiment Analysis Agent&lt;/b&gt;&lt;div&gt;- News/Reddit/market sentiment&lt;/div&gt;&lt;div&gt;&lt;b&gt;Inputs:&lt;/b&gt; ticker/company, API keys&lt;/div&gt;&lt;div&gt;&lt;b&gt;Outputs:&lt;/b&gt; sentiment scores + top signals&lt;/div&gt;" style="rounded=1;whiteSpace=wrap;html=1;shadow=1;fillColor=#FFF9C4;strokeColor=#FBC02D;strokeWidth=2;" parent="1" vertex="1">
          <mxGeometry x="600" y="1040" width="160" height="120" as="geometry" />
        </mxCell>
        <mxCell id="ghIlH1wXpQnP-uuNbD-s-7" value="" style="edgeStyle=orthogonalEdgeStyle;rounded=0;orthogonalLoop=1;jettySize=auto;html=1;" edge="1" parent="1" source="eqpSWVRwXgy1ZHIJhN9i-11" target="eqpSWVRwXgy1ZHIJhN9i-71">
          <mxGeometry relative="1" as="geometry" />
        </mxCell>
        <mxCell id="eqpSWVRwXgy1ZHIJhN9i-71" value="" style="rhombus;whiteSpace=wrap;html=1;" parent="1" vertex="1">
          <mxGeometry x="160" y="1200" width="80" height="80" as="geometry" />
        </mxCell>
        <mxCell id="eqpSWVRwXgy1ZHIJhN9i-84" value="Agent and API calls function as expected" style="text;html=1;align=center;verticalAlign=middle;resizable=0;points=[];autosize=1;strokeColor=none;fillColor=none;" parent="1" vertex="1">
          <mxGeometry x="80" y="1170" width="240" height="30" as="geometry" />
        </mxCell>
        <mxCell id="ghIlH1wXpQnP-uuNbD-s-21" style="edgeStyle=orthogonalEdgeStyle;rounded=0;orthogonalLoop=1;jettySize=auto;html=1;entryX=0;entryY=0.5;entryDx=0;entryDy=0;" edge="1" parent="1" source="eqpSWVRwXgy1ZHIJhN9i-71" target="eqpSWVRwXgy1ZHIJhN9i-16">
          <mxGeometry relative="1" as="geometry">
            <Array as="points">
              <mxPoint x="200" y="1350" />
            </Array>
          </mxGeometry>
        </mxCell>
        <mxCell id="eqpSWVRwXgy1ZHIJhN9i-70" value="Technical Analysis" style="whiteSpace=wrap;html=1;" parent="1" vertex="1">
          <mxGeometry x="220" y="1410" width="120" height="60" as="geometry" />
        </mxCell>
        <mxCell id="eqpSWVRwXgy1ZHIJhN9i-109" value="If YES" style="text;html=1;align=center;verticalAlign=middle;resizable=0;points=[];autosize=1;strokeColor=none;fillColor=none;" parent="1" vertex="1">
          <mxGeometry x="120" y="1290" width="60" height="30" as="geometry" />
        </mxCell>
        <mxCell id="eqpSWVRwXgy1ZHIJhN9i-10" value="" style="edgeStyle=orthogonalEdgeStyle;rounded=0;orthogonalLoop=1;jettySize=auto;html=1;entryX=0.5;entryY=0;entryDx=0;entryDy=0;entryPerimeter=0;" parent="1" source="eqpSWVRwXgy1ZHIJhN9i-71" edge="1" target="note-tech-errors">
          <mxGeometry relative="1" as="geometry">
            <Array as="points">
              <mxPoint x="60" y="1240" />
            </Array>
          </mxGeometry>
        </mxCell>
        <mxCell id="eqpSWVRwXgy1ZHIJhN9i-113" value="If NO" style="text;html=1;align=center;verticalAlign=middle;resizable=0;points=[];autosize=1;strokeColor=none;fillColor=none;" parent="1" vertex="1">
          <mxGeometry x="80" y="1210" width="50" height="30" as="geometry" />
        </mxCell>
        <mxCell id="eqpSWVRwXgy1ZHIJhN9i-12" value="" style="edgeStyle=orthogonalEdgeStyle;rounded=0;orthogonalLoop=1;jettySize=auto;html=1;entryX=0;entryY=0.5;entryDx=0;entryDy=0;" parent="1" source="eqpSWVRwXgy1ZHIJhN9i-13" target="eqpSWVRwXgy1ZHIJhN9i-73" edge="1">
          <mxGeometry relative="1" as="geometry" />
        </mxCell>
        <mxCell id="eqpSWVRwXgy1ZHIJhN9i-73" value="" style="rhombus;whiteSpace=wrap;html=1;" parent="1" vertex="1">
          <mxGeometry x="650" y="1200" width="80" height="80" as="geometry" />
        </mxCell>
        <mxCell id="eqpSWVRwXgy1ZHIJhN9i-89" value="" style="edgeStyle=orthogonalEdgeStyle;rounded=0;orthogonalLoop=1;jettySize=auto;html=1;" parent="1" source="eqpSWVRwXgy1ZHIJhN9i-73" target="eqpSWVRwXgy1ZHIJhN9i-72" edge="1">
          <mxGeometry relative="1" as="geometry" />
        </mxCell>
        <mxCell id="eqpSWVRwXgy1ZHIJhN9i-72" value="Sentiment Analysis" style="whiteSpace=wrap;html=1;" parent="1" vertex="1">
          <mxGeometry x="600" y="1320" width="120" height="60" as="geometry" />
        </mxCell>
        <mxCell id="eqpSWVRwXgy1ZHIJhN9i-91" value="If YES" style="text;html=1;align=center;verticalAlign=middle;resizable=0;points=[];autosize=1;strokeColor=none;fillColor=none;" parent="1" vertex="1">
          <mxGeometry x="590" y="1290" width="60" height="30" as="geometry" />
        </mxCell>
        <mxCell id="eqpSWVRwXgy1ZHIJhN9i-90" style="edgeStyle=orthogonalEdgeStyle;rounded=0;orthogonalLoop=1;jettySize=auto;html=1;entryX=1;entryY=0.5;entryDx=0;entryDy=0;exitX=1;exitY=0.5;exitDx=0;exitDy=0;" parent="1" source="eqpSWVRwXgy1ZHIJhN9i-73" target="eqpSWVRwXgy1ZHIJhN9i-21" edge="1">
          <mxGeometry relative="1" as="geometry">
            <Array as="points">
              <mxPoint x="910" y="1240" />
              <mxPoint x="910" y="1470" />
            </Array>
          </mxGeometry>
        </mxCell>
        <mxCell id="eqpSWVRwXgy1ZHIJhN9i-92" value="If NO" style="text;html=1;align=center;verticalAlign=middle;resizable=0;points=[];autosize=1;strokeColor=none;fillColor=none;" parent="1" vertex="1">
          <mxGeometry x="710" y="1240" width="50" height="30" as="geometry" />
        </mxCell>
        <mxCell id="-6jR4r3HytJgTuYuLb_f-50" value="No Sentiment Analysis" style="rounded=0;whiteSpace=wrap;html=1;" parent="1" vertex="1">
          <mxGeometry x="880" y="1350" width="120" height="60" as="geometry" />
        </mxCell>
        <mxCell id="ghIlH1wXpQnP-uuNbD-s-15" style="edgeStyle=orthogonalEdgeStyle;rounded=0;orthogonalLoop=1;jettySize=auto;html=1;entryX=1;entryY=0.5;entryDx=0;entryDy=0;" edge="1" parent="1" source="eqpSWVRwXgy1ZHIJhN9i-72" target="eqpSWVRwXgy1ZHIJhN9i-16">
          <mxGeometry relative="1" as="geometry">
            <Array as="points">
              <mxPoint x="660" y="1350" />
            </Array>
          </mxGeometry>
        </mxCell>
        <mxCell id="ghIlH1wXpQnP-uuNbD-s-26" value="" style="edgeStyle=orthogonalEdgeStyle;rounded=0;orthogonalLoop=1;jettySize=auto;html=1;" edge="1" parent="1" source="eqpSWVRwXgy1ZHIJhN9i-16" target="eqpSWVRwXgy1ZHIJhN9i-21">
          <mxGeometry relative="1" as="geometry" />
        </mxCell>
        <mxCell id="eqpSWVRwXgy1ZHIJhN9i-16" value="Structured Data Package" style="whiteSpace=wrap;html=1;" parent="1" vertex="1">
          <mxGeometry x="380" y="1320" width="120" height="60" as="geometry" />
        </mxCell>
        <mxCell id="eqpSWVRwXgy1ZHIJhN9i-21" value="&lt;b&gt;Sentiment Integration Agent&lt;/b&gt;&lt;div&gt;- Align signals; adjust confidence/risk&lt;/div&gt;&lt;div&gt;&lt;b&gt;Inputs:&lt;/b&gt; technical signals, sentiment scores&lt;/div&gt;&lt;div&gt;&lt;b&gt;Outputs:&lt;/b&gt; integrated score + risk/confidence&lt;/div&gt;" style="rounded=1;whiteSpace=wrap;html=1;shadow=1;fillColor=#FFF9C4;strokeColor=#FBC02D;strokeWidth=2;" parent="1" vertex="1">
          <mxGeometry x="360" y="1410" width="160" height="120" as="geometry" />
        </mxCell>
        <mxCell id="eqpSWVRwXgy1ZHIJhN9i-107" value="" style="edgeStyle=orthogonalEdgeStyle;rounded=0;orthogonalLoop=1;jettySize=auto;html=1;" parent="1" source="eqpSWVRwXgy1ZHIJhN9i-21" target="eqpSWVRwXgy1ZHIJhN9i-23" edge="1">
          <mxGeometry relative="1" as="geometry" />
        </mxCell>
        <mxCell id="eqpSWVRwXgy1ZHIJhN9i-23" value="&lt;b&gt;Integrated Analysis&lt;/b&gt;&lt;div&gt;Providing User with a weighted score and factors of each piece of analysis&lt;/div&gt;" style="whiteSpace=wrap;html=1;" parent="1" vertex="1">
          <mxGeometry x="380" y="1560" width="120" height="70" as="geometry" />
        </mxCell>
        <mxCell id="eqpSWVRwXgy1ZHIJhN9i-108" value="" style="edgeStyle=orthogonalEdgeStyle;rounded=0;orthogonalLoop=1;jettySize=auto;html=1;" parent="1" source="eqpSWVRwXgy1ZHIJhN9i-23" target="eqpSWVRwXgy1ZHIJhN9i-25" edge="1">
          <mxGeometry relative="1" as="geometry" />
        </mxCell>
        <mxCell id="eqpSWVRwXgy1ZHIJhN9i-25" value="&lt;b&gt;Prediction Agent (Ensemble)&lt;/b&gt;&lt;div&gt;- ML + LLM + rules&lt;/div&gt;&lt;div&gt;&lt;b&gt;Inputs:&lt;/b&gt; integrated features, flags (low_api, use_ml)&lt;/div&gt;&lt;div&gt;&lt;b&gt;Outputs:&lt;/b&gt; final prediction + confidence + risk&lt;/div&gt;" style="rounded=1;whiteSpace=wrap;html=1;shadow=1;fillColor=#FFF9C4;strokeColor=#FBC02D;strokeWidth=2;" parent="1" vertex="1">
          <mxGeometry x="360" y="1660" width="160" height="120" as="geometry" />
        </mxCell>
        <mxCell id="prediction-to-final" value="" style="edgeStyle=orthogonalEdgeStyle;rounded=0;orthogonalLoop=1;jettySize=auto;html=1;" edge="1" parent="1" source="eqpSWVRwXgy1ZHIJhN9i-25" target="eqpSWVRwXgy1ZHIJhN9i-29">
          <mxGeometry relative="1" as="geometry" />
        </mxCell>
        <mxCell id="eqpSWVRwXgy1ZHIJhN9i-29" value="Final Prediction" style="whiteSpace=wrap;html=1;" parent="1" vertex="1">
          <mxGeometry x="380" y="1810" width="120" height="60" as="geometry" />
        </mxCell>
        <mxCell id="eqpSWVRwXgy1ZHIJhN9i-26" value="" style="edgeStyle=orthogonalEdgeStyle;rounded=0;orthogonalLoop=1;jettySize=auto;html=1;" parent="1" source="eqpSWVRwXgy1ZHIJhN9i-29" target="eqpSWVRwXgy1ZHIJhN9i-30" edge="1">
          <mxGeometry relative="1" as="geometry" />
        </mxCell>
        <mxCell id="eqpSWVRwXgy1ZHIJhN9i-27" value="" style="edgeStyle=orthogonalEdgeStyle;rounded=0;orthogonalLoop=1;jettySize=auto;html=1;" parent="1" source="eqpSWVRwXgy1ZHIJhN9i-29" target="eqpSWVRwXgy1ZHIJhN9i-31" edge="1">
          <mxGeometry relative="1" as="geometry" />
        </mxCell>
        <mxCell id="eqpSWVRwXgy1ZHIJhN9i-28" value="" style="edgeStyle=orthogonalEdgeStyle;rounded=0;orthogonalLoop=1;jettySize=auto;html=1;" parent="1" source="eqpSWVRwXgy1ZHIJhN9i-29" target="eqpSWVRwXgy1ZHIJhN9i-32" edge="1">
          <mxGeometry relative="1" as="geometry" />
        </mxCell>
        <mxCell id="ghIlH1wXpQnP-uuNbD-s-17" style="edgeStyle=orthogonalEdgeStyle;rounded=0;orthogonalLoop=1;jettySize=auto;html=1;exitX=0;exitY=0.25;exitDx=0;exitDy=0;entryX=0.5;entryY=0;entryDx=0;entryDy=0;" edge="1" parent="1" source="eqpSWVRwXgy1ZHIJhN9i-29" target="custom-evaluator">
          <mxGeometry relative="1" as="geometry" />
        </mxCell>
        <mxCell id="eqpSWVRwXgy1ZHIJhN9i-30" value="&lt;b&gt;API Endpoints&lt;/b&gt;&lt;div&gt;Access&lt;/div&gt;&lt;div&gt;Integration&lt;/div&gt;&lt;div&gt;Scale&lt;/div&gt;" style="whiteSpace=wrap;html=1;" parent="1" vertex="1">
          <mxGeometry x="580" y="1810" width="120" height="60" as="geometry" />
        </mxCell>
        <mxCell id="eqpSWVRwXgy1ZHIJhN9i-31" value="&lt;b&gt;Chatbot Interface&lt;/b&gt;&lt;div&gt;- Conversational AI&lt;/div&gt;&lt;div&gt;- Natural Language&lt;/div&gt;&lt;div&gt;- User-Friendly&lt;/div&gt;" style="whiteSpace=wrap;html=1;" parent="1" vertex="1">
          <mxGeometry x="180" y="1810" width="120" height="60" as="geometry" />
        </mxCell>
        <mxCell id="eqpSWVRwXgy1ZHIJhN9i-32" value="&lt;b&gt;Dashboard&lt;/b&gt;&lt;div&gt;- Visual Charts&lt;/div&gt;&lt;div&gt;- Analysis Display&lt;/div&gt;&lt;div&gt;- Interactive&lt;/div&gt;" style="whiteSpace=wrap;html=1;" parent="1" vertex="1">
          <mxGeometry x="380" y="1900" width="120" height="60" as="geometry" />
        </mxCell>
        <mxCell id="eqpSWVRwXgy1ZHIJhN9i-51" style="edgeStyle=orthogonalEdgeStyle;rounded=0;orthogonalLoop=1;jettySize=auto;html=1;entryX=0.5;entryY=0;entryDx=0;entryDy=0;" parent="1" source="eqpSWVRwXgy1ZHIJhN9i-32" target="eqpSWVRwXgy1ZHIJhN9i-36" edge="1">
          <mxGeometry relative="1" as="geometry" />
        </mxCell>
        <mxCell id="custom-evaluator" value="&lt;b&gt;Evaluator Optimizer Agent&lt;/b&gt;&lt;div&gt;- Evaluate prediction quality; tune params&lt;/div&gt;&lt;div&gt;&lt;b&gt;Inputs:&lt;/b&gt; predictions, logs, ground truth (when available)&lt;/div&gt;&lt;div&gt;&lt;b&gt;Outputs:&lt;/b&gt; quality metrics + updated params&lt;/div&gt;" style="rounded=1;whiteSpace=wrap;html=1;shadow=1;fillColor=#FFF9C4;strokeColor=#FBC02D;strokeWidth=2;" parent="1" vertex="1">
          <mxGeometry x="60" y="1910" width="160" height="120" as="geometry" />
        </mxCell>
        <mxCell id="custom-elicitation" value="&lt;b&gt;Elicitation Agent&lt;/b&gt;&lt;div&gt;- Summarize &amp; explain results&lt;/div&gt;&lt;div&gt;&lt;b&gt;Inputs:&lt;/b&gt; final prediction, analysis details&lt;/div&gt;&lt;div&gt;&lt;b&gt;Outputs:&lt;/b&gt; user narrative + key drivers&lt;/div&gt;" style="rounded=1;whiteSpace=wrap;html=1;shadow=1;fillColor=#FFF9C4;strokeColor=#FBC02D;strokeWidth=2;" parent="1" vertex="1">
          <mxGeometry x="60" y="2180" width="160" height="120" as="geometry" />
        </mxCell>
        <mxCell id="edge-eval-to-elic" style="edgeStyle=orthogonalEdgeStyle;rounded=0;orthogonalLoop=1;jettySize=auto;html=1;" parent="1" source="custom-evaluator" target="custom-elicitation" edge="1">
          <mxGeometry relative="1" as="geometry" />
        </mxCell>
        <mxCell id="edge-elic-to-end" style="edgeStyle=orthogonalEdgeStyle;rounded=0;orthogonalLoop=1;jettySize=auto;html=1;" parent="1" source="custom-elicitation" target="eqpSWVRwXgy1ZHIJhN9i-36" edge="1">
          <mxGeometry relative="1" as="geometry" />
        </mxCell>
        <mxCell id="eqpSWVRwXgy1ZHIJhN9i-115" style="edgeStyle=orthogonalEdgeStyle;rounded=0;orthogonalLoop=1;jettySize=auto;html=1;entryX=0.479;entryY=0.057;entryDx=0;entryDy=0;entryPerimeter=0;" parent="1" source="eqpSWVRwXgy1ZHIJhN9i-30" target="eqpSWVRwXgy1ZHIJhN9i-36" edge="1">
          <mxGeometry relative="1" as="geometry">
            <Array as="points">
              <mxPoint x="640" y="2070" />
              <mxPoint x="439" y="2070" />
            </Array>
          </mxGeometry>
        </mxCell>
        <mxCell id="eqpSWVRwXgy1ZHIJhN9i-118" style="edgeStyle=orthogonalEdgeStyle;rounded=0;orthogonalLoop=1;jettySize=auto;html=1;entryX=0.53;entryY=0.074;entryDx=0;entryDy=0;entryPerimeter=0;" parent="1" source="eqpSWVRwXgy1ZHIJhN9i-31" target="eqpSWVRwXgy1ZHIJhN9i-36" edge="1">
          <mxGeometry relative="1" as="geometry">
            <Array as="points">
              <mxPoint x="240" y="2070" />
              <mxPoint x="441" y="2070" />
            </Array>
          </mxGeometry>
        </mxCell>
        <mxCell id="eqpSWVRwXgy1ZHIJhN9i-36" value="" style="ellipse;html=1;shape=endState;fillColor=#000000;strokeColor=#ff0000;" parent="1" vertex="1">
          <mxGeometry x="425" y="2090" width="30" height="30" as="geometry" />
        </mxCell>
        <mxCell id="ghIlH1wXpQnP-uuNbD-s-8" style="edgeStyle=orthogonalEdgeStyle;rounded=0;orthogonalLoop=1;jettySize=auto;html=1;entryX=0;entryY=1;entryDx=0;entryDy=0;" edge="1" parent="1" source="note-tech-errors" target="eqpSWVRwXgy1ZHIJhN9i-36">
          <mxGeometry relative="1" as="geometry">
            <Array as="points">
              <mxPoint x="50" y="2116" />
            </Array>
          </mxGeometry>
        </mxCell>
        <mxCell id="eqpSWVRwXgy1ZHIJhN9i-33" value="API&#39;s Used&lt;div&gt;- Yahoo Finance (yfinance)&lt;/div&gt;&lt;div&gt;- NewsAPI&lt;/div&gt;&lt;div&gt;- Reddit API&lt;/div&gt;&lt;div&gt;- Groq / Gemini (LLM)&lt;/div&gt;&lt;div&gt;- Tavily (optional search)&lt;/div&gt;" style="shape=note;whiteSpace=wrap;html=1;backgroundOutline=1;darkOpacity=0.05;" parent="1" vertex="1">
          <mxGeometry x="20" y="70" width="200" height="100" as="geometry" />
        </mxCell>
        <mxCell id="note-orchestrator-errors" value="Orchestrator/Input Errors&lt;div&gt;- Invalid ticker: validation failed&lt;/div&gt;&lt;div&gt;- Invalid tickers: list contains errors&lt;/div&gt;&lt;div&gt;- Missing/invalid API keys or env vars&lt;/div&gt;&lt;div&gt;- Rate limited: too many requests&lt;/div&gt;&lt;div&gt;- Network error while initializing&lt;/div&gt;" style="shape=note;whiteSpace=wrap;html=1;backgroundOutline=1;darkOpacity=0.05;" vertex="1" parent="1">
          <mxGeometry x="600" y="370" width="200" height="100" as="geometry" />
        </mxCell>
        <mxCell id="note-data-errors" value="Data Fetch Errors (Yahoo Finance)&lt;div&gt;- Timeout / network failure&lt;/div&gt;&lt;div&gt;- Rate limit exceeded&lt;/div&gt;&lt;div&gt;- Symbol not found / invalid ticker&lt;/div&gt;&lt;div&gt;- Empty/NaN data returned&lt;/div&gt;&lt;div&gt;- Cache unavailable when fallback needed&lt;/div&gt;" style="shape=note;whiteSpace=wrap;html=1;backgroundOutline=1;darkOpacity=0.05;" vertex="1" parent="1">
          <mxGeometry x="620" y="840" width="200" height="100" as="geometry" />
        </mxCell>
        <mxCell id="note-tech-errors" value="Technical Analysis Errors&lt;div&gt;- Insufficient historical data&lt;/div&gt;&lt;div&gt;- Indicator calculation failure (e.g., divide-by-zero)&lt;/div&gt;&lt;div&gt;- NaN values after preprocessing&lt;/div&gt;&lt;div&gt;- Invalid parameters for indicators&lt;/div&gt;" style="shape=note;whiteSpace=wrap;html=1;backgroundOutline=1;darkOpacity=0.05;" vertex="1" parent="1">
          <mxGeometry x="-40" y="1320" width="200" height="100" as="geometry" />
        </mxCell>
        <mxCell id="note-llm-errors" value="LLM Errors&lt;div&gt;- LLM disabled by DISABLE_LLM&lt;/div&gt;&lt;div&gt;- No LLM clients available&lt;/div&gt;&lt;div&gt;- Quota exhausted / rate limited&lt;/div&gt;&lt;div&gt;- Provider timeout / network issue&lt;/div&gt;&lt;div&gt;- Invalid/missing API key&lt;/div&gt;" style="shape=note;whiteSpace=wrap;html=1;backgroundOutline=1;darkOpacity=0.05;" vertex="1" parent="1">
          <mxGeometry x="630" y="1650" width="200" height="100" as="geometry" />
        </mxCell>
        <mxCell id="custom-ml-note" value="ML Model: RandomForest (300 trees, depth 6) over 25 engineered features (RSI, MACD, SMAs/distances, trend/ADX, stochastic, Bollinger, returns, sentiment)" style="shape=note;whiteSpace=wrap;html=1;backgroundOutline=1;darkOpacity=0.05;" parent="1" vertex="1">
          <mxGeometry x="140" y="1670" width="200" height="100" as="geometry" />
        </mxCell>
        <mxCell id="ghIlH1wXpQnP-uuNbD-s-27" value="&lt;span style=&quot;color: rgb(0, 0, 0); font-family: Helvetica; font-size: 12px; font-style: normal; font-variant-ligatures: normal; font-variant-caps: normal; font-weight: 400; letter-spacing: normal; orphans: 2; text-align: center; text-indent: 0px; text-transform: none; widows: 2; word-spacing: 0px; -webkit-text-stroke-width: 0px; white-space: nowrap; background-color: rgb(236, 236, 236); text-decoration-thickness: initial; text-decoration-style: initial; text-decoration-color: initial; display: inline !important; float: none;&quot;&gt;If API calls and Agent function without errors&lt;/span&gt;" style="text;whiteSpace=wrap;html=1;" vertex="1" parent="1">
          <mxGeometry x="510" y="1180" width="270" height="40" as="geometry" />
        </mxCell>
      </root>
    </mxGraphModel>
  </diagram>
</mxfile>
